<svg width="206" height="197" viewBox="0 0 206 197" fill="none" xmlns="http://www.w3.org/2000/svg">
<path fill-rule="evenodd" clip-rule="evenodd" d="M125.885 60.111C156.331 74.4282 176.75 93.754 171.622 103.52C166.437 113.393 137.099 109.755 106.094 95.3928C75.0883 81.031 54.1569 61.3843 59.342 51.5107C64.4709 41.7439 93.2333 45.1984 123.865 59.1752C95.4244 46.2023 68.9311 42.6229 64.4141 51.2243C59.844 59.9269 79.5015 77.8035 108.32 91.1526C137.139 104.502 164.207 108.268 168.777 99.5658C173.293 90.9656 154.149 73.4064 125.885 60.111Z" fill="#D2B68A"/>
<path fill-rule="evenodd" clip-rule="evenodd" d="M108.523 79.33C78.1239 66.0447 48.4153 65.9425 41.4772 79.3469C34.3636 93.0904 53.8808 115.828 85.0702 130.133C116.26 144.438 147.31 144.894 154.424 131.15C161.361 117.748 142.973 95.7915 113.131 81.4437C140.788 94.7537 158.072 114.582 151.97 126.372C145.7 138.486 117.116 137.527 88.1256 124.231C59.1354 110.934 40.7171 90.3355 46.9871 78.2219C53.0907 66.4299 80.3387 67.0252 108.523 79.33Z" fill="#13254B"/>
<path fill-rule="evenodd" clip-rule="evenodd" d="M101.315 94.0622C70.6673 80.8752 40.6651 81.0498 33.7842 94.6434C26.7739 108.492 46.4164 131.025 77.657 144.971C108.897 158.917 139.906 158.996 146.916 145.147C153.798 131.552 134.996 109.59 104.751 95.5959C132.803 108.585 150.49 128.427 144.433 140.393C138.254 152.599 109.705 151.986 80.6676 139.023C51.6299 126.06 33.0992 105.657 39.2781 93.45C45.3344 81.4856 72.8815 81.8372 101.315 94.0622Z" fill="#13254B"/>
<path fill-rule="evenodd" clip-rule="evenodd" d="M111.412 81.7913C81.7808 66.7358 61.6237 48.2342 66.1873 40.1245C70.8293 31.8757 99.2898 37.5022 129.756 52.6916C160.222 67.8811 181.156 86.8816 176.514 95.1304C171.951 103.24 144.368 97.9391 114.49 83.3259C142.213 96.8797 167.611 102.101 171.628 94.9624C175.719 87.6918 156.08 70.3526 127.762 56.2342C99.4446 42.1158 73.1718 36.5646 69.0803 43.8352C65.0631 50.9738 83.9228 67.8187 111.412 81.7913Z" fill="#13254B"/>
<path fill-rule="evenodd" clip-rule="evenodd" d="M113.327 76.9758C143.201 92.6339 162.84 112.848 157.308 122.367C151.716 131.989 122.526 127.041 92.1086 111.315C61.6917 95.5893 41.5669 75.0411 47.1587 65.4193C52.692 55.8981 81.3335 60.6439 111.405 75.9818C83.4834 61.7444 57.1163 56.9757 52.2431 65.3611C47.3145 73.8418 66.2381 92.5662 94.5102 107.183C122.782 121.8 149.697 126.774 154.626 118.294C159.498 109.91 141.061 91.5164 113.327 76.9758Z" fill="#D2B68A"/>
</svg>
